<svg width="86" height="87" viewBox="0 0 86 87" fill="none" xmlns="http://www.w3.org/2000/svg">
<path d="M78.5964 43.0454C82.7354 43.0454 86.1571 39.665 85.44 35.5885C84.0533 27.7049 80.485 20.3112 75.0703 14.2824C67.9748 6.38225 58.2096 1.38355 47.6518 0.247191C37.0941 -0.889173 26.4888 1.917 17.8747 8.12629C9.26061 14.3356 3.2456 23.5097 0.985923 33.8853C-1.27375 44.2608 0.381387 55.1055 5.63318 64.3346C10.885 73.5637 19.3628 80.526 29.4369 83.883C39.5111 87.24 50.4706 86.7549 60.2087 82.521C67.6401 79.2899 73.96 74.0497 78.4995 67.4568C80.8468 64.0477 79.1407 59.5506 75.3766 57.8293C71.6124 56.1081 67.2302 57.8578 64.5764 61.034C61.799 64.3582 58.267 67.0211 54.2323 68.7753C47.8851 71.535 40.7417 71.8511 34.1755 69.663C27.6092 67.475 22.0835 62.937 18.6604 56.9215C15.2373 50.9061 14.1585 43.8376 15.6313 37.0749C17.1042 30.3122 21.0247 24.3325 26.6393 20.2854C32.2539 16.2382 39.1663 14.4091 46.0478 15.1498C52.9293 15.8905 59.2942 19.1486 63.919 24.2979C66.8588 27.571 68.9635 31.4615 70.107 35.6396C71.1996 39.6318 74.4574 43.0454 78.5964 43.0454Z" fill="#5EE0F1"/>
</svg>
